<mxfile host="app.diagrams.net" agent="Mozilla/5.0 (X11; Linux x86_64) AppleWebKit/537.36 (KHTML, like Gecko) Chrome/128.0.0.0 Safari/537.36" version="24.8.6">
  <diagram name="Page-1" id="OChzkaoLPH1wX3Xxilvf">
    <mxGraphModel dx="2191" dy="-410" grid="1" gridSize="10" guides="1" tooltips="1" connect="1" arrows="1" fold="1" page="1" pageScale="1" pageWidth="827" pageHeight="1169" math="0" shadow="0">
      <root>
        <mxCell id="0" />
        <mxCell id="1" parent="0" />
        <mxCell id="tKbml4HKIggQVQc88yHQ-6" style="edgeStyle=orthogonalEdgeStyle;rounded=0;orthogonalLoop=1;jettySize=auto;html=1;" edge="1" parent="1" source="tKbml4HKIggQVQc88yHQ-1">
          <mxGeometry relative="1" as="geometry">
            <mxPoint y="1320" as="targetPoint" />
          </mxGeometry>
        </mxCell>
        <mxCell id="tKbml4HKIggQVQc88yHQ-1" value="DÃ©but" style="ellipse;whiteSpace=wrap;html=1;" vertex="1" parent="1">
          <mxGeometry x="-60" y="1190" width="120" height="70" as="geometry" />
        </mxCell>
        <mxCell id="tKbml4HKIggQVQc88yHQ-10" value="" style="edgeStyle=orthogonalEdgeStyle;rounded=0;orthogonalLoop=1;jettySize=auto;html=1;" edge="1" parent="1" source="tKbml4HKIggQVQc88yHQ-7" target="tKbml4HKIggQVQc88yHQ-9">
          <mxGeometry relative="1" as="geometry" />
        </mxCell>
        <mxCell id="tKbml4HKIggQVQc88yHQ-7" value="ETA ( CL, )" style="rounded=0;whiteSpace=wrap;html=1;" vertex="1" parent="1">
          <mxGeometry x="-61" y="1320" width="120" height="60" as="geometry" />
        </mxCell>
        <mxCell id="tKbml4HKIggQVQc88yHQ-12" value="" style="edgeStyle=orthogonalEdgeStyle;rounded=0;orthogonalLoop=1;jettySize=auto;html=1;" edge="1" parent="1" source="tKbml4HKIggQVQc88yHQ-9" target="tKbml4HKIggQVQc88yHQ-11">
          <mxGeometry relative="1" as="geometry" />
        </mxCell>
        <mxCell id="tKbml4HKIggQVQc88yHQ-25" value="" style="edgeStyle=orthogonalEdgeStyle;rounded=0;orthogonalLoop=1;jettySize=auto;html=1;entryX=0;entryY=0.5;entryDx=0;entryDy=0;" edge="1" parent="1" target="tKbml4HKIggQVQc88yHQ-19">
          <mxGeometry relative="1" as="geometry">
            <mxPoint x="-80" y="1490" as="sourcePoint" />
            <mxPoint x="-60" y="1784" as="targetPoint" />
            <Array as="points">
              <mxPoint x="-160" y="1490" />
              <mxPoint x="-160" y="1784" />
            </Array>
          </mxGeometry>
        </mxCell>
        <mxCell id="tKbml4HKIggQVQc88yHQ-9" value="E1 = 0" style="rhombus;whiteSpace=wrap;html=1;rounded=0;" vertex="1" parent="1">
          <mxGeometry x="-41" y="1450" width="80" height="80" as="geometry" />
        </mxCell>
        <mxCell id="tKbml4HKIggQVQc88yHQ-20" style="edgeStyle=orthogonalEdgeStyle;rounded=0;orthogonalLoop=1;jettySize=auto;html=1;entryX=0.5;entryY=0;entryDx=0;entryDy=0;" edge="1" parent="1" source="tKbml4HKIggQVQc88yHQ-11" target="tKbml4HKIggQVQc88yHQ-19">
          <mxGeometry relative="1" as="geometry" />
        </mxCell>
        <mxCell id="tKbml4HKIggQVQc88yHQ-11" value="ETA ( CL, 1 )" style="whiteSpace=wrap;html=1;rounded=0;" vertex="1" parent="1">
          <mxGeometry x="-60" y="1590" width="120" height="60" as="geometry" />
        </mxCell>
        <mxCell id="tKbml4HKIggQVQc88yHQ-28" value="" style="edgeStyle=orthogonalEdgeStyle;rounded=0;orthogonalLoop=1;jettySize=auto;html=1;" edge="1" parent="1" source="tKbml4HKIggQVQc88yHQ-19" target="tKbml4HKIggQVQc88yHQ-27">
          <mxGeometry relative="1" as="geometry" />
        </mxCell>
        <mxCell id="tKbml4HKIggQVQc88yHQ-19" value="SAISIR TEMPMIN" style="shape=trapezoid;perimeter=trapezoidPerimeter;whiteSpace=wrap;html=1;fixedSize=1;" vertex="1" parent="1">
          <mxGeometry x="-61" y="1754" width="120" height="60" as="geometry" />
        </mxCell>
        <mxCell id="tKbml4HKIggQVQc88yHQ-30" value="" style="edgeStyle=orthogonalEdgeStyle;rounded=0;orthogonalLoop=1;jettySize=auto;html=1;" edge="1" parent="1" source="tKbml4HKIggQVQc88yHQ-27" target="tKbml4HKIggQVQc88yHQ-29">
          <mxGeometry relative="1" as="geometry" />
        </mxCell>
        <mxCell id="tKbml4HKIggQVQc88yHQ-27" value="SAISIR TEMPMAX" style="shape=trapezoid;perimeter=trapezoidPerimeter;whiteSpace=wrap;html=1;fixedSize=1;" vertex="1" parent="1">
          <mxGeometry x="-61" y="1894" width="120" height="60" as="geometry" />
        </mxCell>
        <mxCell id="tKbml4HKIggQVQc88yHQ-32" style="edgeStyle=orthogonalEdgeStyle;rounded=0;orthogonalLoop=1;jettySize=auto;html=1;entryX=1;entryY=0.75;entryDx=0;entryDy=0;" edge="1" parent="1" source="tKbml4HKIggQVQc88yHQ-29" target="tKbml4HKIggQVQc88yHQ-19">
          <mxGeometry relative="1" as="geometry">
            <Array as="points">
              <mxPoint x="190" y="2070" />
              <mxPoint x="190" y="1798" />
            </Array>
          </mxGeometry>
        </mxCell>
        <mxCell id="tKbml4HKIggQVQc88yHQ-29" value="TEMPMIN &amp;gt; TEMPMAX" style="rhombus;whiteSpace=wrap;html=1;" vertex="1" parent="1">
          <mxGeometry x="-51.5" y="2030" width="101" height="80" as="geometry" />
        </mxCell>
        <mxCell id="tKbml4HKIggQVQc88yHQ-31" value="" style="ellipse;whiteSpace=wrap;html=1;aspect=fixed;" vertex="1" parent="1">
          <mxGeometry x="-81" y="1470" width="40" height="40" as="geometry" />
        </mxCell>
        <mxCell id="tKbml4HKIggQVQc88yHQ-36" value="" style="edgeStyle=orthogonalEdgeStyle;rounded=0;orthogonalLoop=1;jettySize=auto;html=1;" edge="1" parent="1" source="tKbml4HKIggQVQc88yHQ-33" target="tKbml4HKIggQVQc88yHQ-35">
          <mxGeometry relative="1" as="geometry" />
        </mxCell>
        <mxCell id="tKbml4HKIggQVQc88yHQ-33" value="" style="ellipse;whiteSpace=wrap;html=1;aspect=fixed;" vertex="1" parent="1">
          <mxGeometry x="-21" y="2110" width="40" height="40" as="geometry" />
        </mxCell>
        <mxCell id="tKbml4HKIggQVQc88yHQ-38" value="" style="edgeStyle=orthogonalEdgeStyle;rounded=0;orthogonalLoop=1;jettySize=auto;html=1;" edge="1" parent="1" source="tKbml4HKIggQVQc88yHQ-35" target="tKbml4HKIggQVQc88yHQ-37">
          <mxGeometry relative="1" as="geometry" />
        </mxCell>
        <mxCell id="tKbml4HKIggQVQc88yHQ-50" value="" style="edgeStyle=orthogonalEdgeStyle;rounded=0;orthogonalLoop=1;jettySize=auto;html=1;" edge="1" parent="1" source="tKbml4HKIggQVQc88yHQ-35" target="tKbml4HKIggQVQc88yHQ-49">
          <mxGeometry relative="1" as="geometry" />
        </mxCell>
        <mxCell id="tKbml4HKIggQVQc88yHQ-35" value="TEMP = READ ( CL )" style="whiteSpace=wrap;html=1;" vertex="1" parent="1">
          <mxGeometry x="-61" y="2220" width="120" height="60" as="geometry" />
        </mxCell>
        <mxCell id="tKbml4HKIggQVQc88yHQ-40" value="" style="edgeStyle=orthogonalEdgeStyle;rounded=0;orthogonalLoop=1;jettySize=auto;html=1;" edge="1" parent="1" source="tKbml4HKIggQVQc88yHQ-37" target="tKbml4HKIggQVQc88yHQ-39">
          <mxGeometry relative="1" as="geometry" />
        </mxCell>
        <mxCell id="tKbml4HKIggQVQc88yHQ-37" value="TEMP &amp;lt; TEMPMIN" style="rhombus;whiteSpace=wrap;html=1;" vertex="1" parent="1">
          <mxGeometry x="-45.5" y="2360" width="91" height="90" as="geometry" />
        </mxCell>
        <mxCell id="tKbml4HKIggQVQc88yHQ-80" value="" style="edgeStyle=orthogonalEdgeStyle;rounded=0;orthogonalLoop=1;jettySize=auto;html=1;" edge="1" parent="1" source="tKbml4HKIggQVQc88yHQ-39" target="tKbml4HKIggQVQc88yHQ-79">
          <mxGeometry relative="1" as="geometry" />
        </mxCell>
        <mxCell id="tKbml4HKIggQVQc88yHQ-39" value="ON ( CL, 1 )" style="whiteSpace=wrap;html=1;" vertex="1" parent="1">
          <mxGeometry x="150" y="2375" width="120" height="60" as="geometry" />
        </mxCell>
        <mxCell id="tKbml4HKIggQVQc88yHQ-44" value="" style="edgeStyle=orthogonalEdgeStyle;rounded=0;orthogonalLoop=1;jettySize=auto;html=1;" edge="1" parent="1" source="tKbml4HKIggQVQc88yHQ-41" target="tKbml4HKIggQVQc88yHQ-43">
          <mxGeometry relative="1" as="geometry" />
        </mxCell>
        <mxCell id="tKbml4HKIggQVQc88yHQ-41" value="" style="ellipse;whiteSpace=wrap;html=1;" vertex="1" parent="1">
          <mxGeometry x="-19.5" y="2450" width="39" height="40" as="geometry" />
        </mxCell>
        <mxCell id="tKbml4HKIggQVQc88yHQ-46" value="" style="edgeStyle=orthogonalEdgeStyle;rounded=0;orthogonalLoop=1;jettySize=auto;html=1;" edge="1" parent="1" source="tKbml4HKIggQVQc88yHQ-43" target="tKbml4HKIggQVQc88yHQ-45">
          <mxGeometry relative="1" as="geometry" />
        </mxCell>
        <mxCell id="tKbml4HKIggQVQc88yHQ-43" value="TEMP &amp;gt; TEMPMAX" style="rhombus;whiteSpace=wrap;html=1;" vertex="1" parent="1">
          <mxGeometry x="-40" y="2560" width="80" height="80" as="geometry" />
        </mxCell>
        <mxCell id="tKbml4HKIggQVQc88yHQ-82" style="edgeStyle=orthogonalEdgeStyle;rounded=0;orthogonalLoop=1;jettySize=auto;html=1;" edge="1" parent="1" source="tKbml4HKIggQVQc88yHQ-45" target="tKbml4HKIggQVQc88yHQ-79">
          <mxGeometry relative="1" as="geometry">
            <Array as="points">
              <mxPoint x="440" y="2600" />
              <mxPoint x="440" y="2250" />
            </Array>
          </mxGeometry>
        </mxCell>
        <mxCell id="tKbml4HKIggQVQc88yHQ-45" value="ON ( CL, 0 )" style="whiteSpace=wrap;html=1;" vertex="1" parent="1">
          <mxGeometry x="160" y="2570" width="120" height="60" as="geometry" />
        </mxCell>
        <mxCell id="tKbml4HKIggQVQc88yHQ-49" value="TEMP" style="shape=step;perimeter=stepPerimeter;whiteSpace=wrap;html=1;fixedSize=1;" vertex="1" parent="1">
          <mxGeometry x="-261" y="2210" width="120" height="80" as="geometry" />
        </mxCell>
        <mxCell id="tKbml4HKIggQVQc88yHQ-54" value="" style="edgeStyle=orthogonalEdgeStyle;rounded=0;orthogonalLoop=1;jettySize=auto;html=1;" edge="1" parent="1" source="tKbml4HKIggQVQc88yHQ-51" target="tKbml4HKIggQVQc88yHQ-53">
          <mxGeometry relative="1" as="geometry" />
        </mxCell>
        <mxCell id="tKbml4HKIggQVQc88yHQ-51" value="DEMANDER SI MODIFIER LIMITES TEMPÃRATURES&lt;div&gt;&lt;br&gt;&lt;/div&gt;" style="whiteSpace=wrap;html=1;" vertex="1" parent="1">
          <mxGeometry x="-130" y="2730" width="260" height="60" as="geometry" />
        </mxCell>
        <mxCell id="tKbml4HKIggQVQc88yHQ-55" style="edgeStyle=orthogonalEdgeStyle;rounded=0;orthogonalLoop=1;jettySize=auto;html=1;entryX=-0.017;entryY=0.9;entryDx=0;entryDy=0;entryPerimeter=0;" edge="1" parent="1" source="tKbml4HKIggQVQc88yHQ-53" target="tKbml4HKIggQVQc88yHQ-19">
          <mxGeometry relative="1" as="geometry">
            <mxPoint x="-240" y="1820" as="targetPoint" />
            <Array as="points">
              <mxPoint x="-360" y="2910" />
              <mxPoint x="-360" y="1808" />
            </Array>
          </mxGeometry>
        </mxCell>
        <mxCell id="tKbml4HKIggQVQc88yHQ-53" value="" style="rhombus;whiteSpace=wrap;html=1;" vertex="1" parent="1">
          <mxGeometry x="-40" y="2870" width="80" height="80" as="geometry" />
        </mxCell>
        <mxCell id="tKbml4HKIggQVQc88yHQ-58" value="" style="edgeStyle=orthogonalEdgeStyle;rounded=0;orthogonalLoop=1;jettySize=auto;html=1;" edge="1" parent="1" source="tKbml4HKIggQVQc88yHQ-56">
          <mxGeometry relative="1" as="geometry">
            <mxPoint x="-1" y="3060" as="targetPoint" />
          </mxGeometry>
        </mxCell>
        <mxCell id="tKbml4HKIggQVQc88yHQ-56" value="" style="ellipse;whiteSpace=wrap;html=1;aspect=fixed;" vertex="1" parent="1">
          <mxGeometry x="-21" y="2950" width="40" height="40" as="geometry" />
        </mxCell>
        <mxCell id="tKbml4HKIggQVQc88yHQ-73" value="" style="edgeStyle=orthogonalEdgeStyle;rounded=0;orthogonalLoop=1;jettySize=auto;html=1;" edge="1" parent="1" source="tKbml4HKIggQVQc88yHQ-69" target="tKbml4HKIggQVQc88yHQ-72">
          <mxGeometry relative="1" as="geometry" />
        </mxCell>
        <mxCell id="tKbml4HKIggQVQc88yHQ-69" value="DEMANDER SI STOPER DISPOSITIF DE CLIMATISATION" style="whiteSpace=wrap;html=1;" vertex="1" parent="1">
          <mxGeometry x="-60" y="3060" width="120" height="60" as="geometry" />
        </mxCell>
        <mxCell id="tKbml4HKIggQVQc88yHQ-75" value="" style="edgeStyle=orthogonalEdgeStyle;rounded=0;orthogonalLoop=1;jettySize=auto;html=1;" edge="1" parent="1" source="tKbml4HKIggQVQc88yHQ-72">
          <mxGeometry relative="1" as="geometry">
            <mxPoint y="3360" as="targetPoint" />
          </mxGeometry>
        </mxCell>
        <mxCell id="tKbml4HKIggQVQc88yHQ-72" value="" style="rhombus;whiteSpace=wrap;html=1;" vertex="1" parent="1">
          <mxGeometry x="-40" y="3190" width="80" height="80" as="geometry" />
        </mxCell>
        <mxCell id="tKbml4HKIggQVQc88yHQ-86" value="" style="edgeStyle=orthogonalEdgeStyle;rounded=0;orthogonalLoop=1;jettySize=auto;html=1;" edge="1" parent="1" source="tKbml4HKIggQVQc88yHQ-74" target="tKbml4HKIggQVQc88yHQ-85">
          <mxGeometry relative="1" as="geometry" />
        </mxCell>
        <mxCell id="tKbml4HKIggQVQc88yHQ-74" value="ETA ( CL, )" style="whiteSpace=wrap;html=1;" vertex="1" parent="1">
          <mxGeometry x="-59.5" y="3360" width="120" height="60" as="geometry" />
        </mxCell>
        <mxCell id="tKbml4HKIggQVQc88yHQ-78" style="edgeStyle=orthogonalEdgeStyle;rounded=0;orthogonalLoop=1;jettySize=auto;html=1;entryX=0.5;entryY=0;entryDx=0;entryDy=0;" edge="1" parent="1" source="tKbml4HKIggQVQc88yHQ-77" target="tKbml4HKIggQVQc88yHQ-51">
          <mxGeometry relative="1" as="geometry" />
        </mxCell>
        <mxCell id="tKbml4HKIggQVQc88yHQ-77" value="" style="ellipse;whiteSpace=wrap;html=1;aspect=fixed;" vertex="1" parent="1">
          <mxGeometry x="-21" y="2640" width="40" height="40" as="geometry" />
        </mxCell>
        <mxCell id="tKbml4HKIggQVQc88yHQ-81" style="edgeStyle=orthogonalEdgeStyle;rounded=0;orthogonalLoop=1;jettySize=auto;html=1;entryX=1;entryY=0.5;entryDx=0;entryDy=0;" edge="1" parent="1" source="tKbml4HKIggQVQc88yHQ-79" target="tKbml4HKIggQVQc88yHQ-35">
          <mxGeometry relative="1" as="geometry" />
        </mxCell>
        <mxCell id="tKbml4HKIggQVQc88yHQ-79" value="ATTENDRE 5 MIN" style="whiteSpace=wrap;html=1;" vertex="1" parent="1">
          <mxGeometry x="150" y="2220" width="120" height="60" as="geometry" />
        </mxCell>
        <mxCell id="tKbml4HKIggQVQc88yHQ-83" style="edgeStyle=orthogonalEdgeStyle;rounded=0;orthogonalLoop=1;jettySize=auto;html=1;entryX=0;entryY=0.5;entryDx=0;entryDy=0;" edge="1" parent="1" target="tKbml4HKIggQVQc88yHQ-51">
          <mxGeometry relative="1" as="geometry">
            <mxPoint x="-80" y="3240" as="sourcePoint" />
            <Array as="points">
              <mxPoint x="-80" y="3230" />
              <mxPoint x="-240" y="3230" />
              <mxPoint x="-240" y="2760" />
            </Array>
          </mxGeometry>
        </mxCell>
        <mxCell id="tKbml4HKIggQVQc88yHQ-84" value="" style="ellipse;whiteSpace=wrap;html=1;aspect=fixed;" vertex="1" parent="1">
          <mxGeometry x="-80" y="3210" width="40" height="40" as="geometry" />
        </mxCell>
        <mxCell id="tKbml4HKIggQVQc88yHQ-88" value="" style="edgeStyle=orthogonalEdgeStyle;rounded=0;orthogonalLoop=1;jettySize=auto;html=1;" edge="1" parent="1" source="tKbml4HKIggQVQc88yHQ-85" target="tKbml4HKIggQVQc88yHQ-87">
          <mxGeometry relative="1" as="geometry" />
        </mxCell>
        <mxCell id="tKbml4HKIggQVQc88yHQ-85" value="E1 = 1" style="rhombus;whiteSpace=wrap;html=1;" vertex="1" parent="1">
          <mxGeometry x="-39.5" y="3490" width="80" height="80" as="geometry" />
        </mxCell>
        <mxCell id="tKbml4HKIggQVQc88yHQ-91" value="" style="edgeStyle=orthogonalEdgeStyle;rounded=0;orthogonalLoop=1;jettySize=auto;html=1;" edge="1" parent="1" source="tKbml4HKIggQVQc88yHQ-87">
          <mxGeometry relative="1" as="geometry">
            <mxPoint x="0.5" y="3800" as="targetPoint" />
          </mxGeometry>
        </mxCell>
        <mxCell id="tKbml4HKIggQVQc88yHQ-87" value="ETA ( CL, 0 )" style="whiteSpace=wrap;html=1;" vertex="1" parent="1">
          <mxGeometry x="-59.5" y="3660" width="120" height="60" as="geometry" />
        </mxCell>
        <mxCell id="tKbml4HKIggQVQc88yHQ-92" value="FIN" style="ellipse;whiteSpace=wrap;html=1;" vertex="1" parent="1">
          <mxGeometry x="-59.5" y="3800" width="120" height="80" as="geometry" />
        </mxCell>
        <mxCell id="tKbml4HKIggQVQc88yHQ-95" style="edgeStyle=orthogonalEdgeStyle;rounded=0;orthogonalLoop=1;jettySize=auto;html=1;" edge="1" parent="1" source="tKbml4HKIggQVQc88yHQ-94" target="tKbml4HKIggQVQc88yHQ-92">
          <mxGeometry relative="1" as="geometry">
            <Array as="points">
              <mxPoint x="-170" y="3530" />
              <mxPoint x="-170" y="3840" />
            </Array>
          </mxGeometry>
        </mxCell>
        <mxCell id="tKbml4HKIggQVQc88yHQ-94" value="" style="ellipse;whiteSpace=wrap;html=1;aspect=fixed;" vertex="1" parent="1">
          <mxGeometry x="-81" y="3510" width="40" height="40" as="geometry" />
        </mxCell>
      </root>
    </mxGraphModel>
  </diagram>
</mxfile>
